#!OML:ASF E:/inclinewalkrobotboard/Project1/Captureday1/Session1/subject1.ASF
:FULLY-SPECIFIED
:DEGREES
126
root 0 0 0 -7.738491925487018 -8.226959553131623 -5.4083839782425365
lowerback 13.63866713038497 1.98011950555434 5.30437824378806
upperback 2.19210272673636 3.3206665003728526 1.5011496156379982
thorax -5.29415428038511 1.622150456002268 -1.971633777047689
lowerneck -17.10957946985952 -3.7816735046358803 -1.6497891660885078
upperneck 19.33702569781491 -4.994432770152305 0.87669809542012
head 8.901011312446613 -2.399670444131641 -0.05435127288473063
rclavicle 3.1765061118825084E-15 7.629262965221036E-16
rhumerus -47.043262510484396 -17.803064392398475 -74.6714582297387
rradius 25.338220561214232
rwrist -3.042871594345538
rhand -22.271780391511694 28.242208564196602
rfingers 7.125020000000062
rthumb 4.1462508140471925 -2.087940313246424
lclavicle -4.738863300208509E-15 -6.153150258500989E-15
lhumerus -41.38015592587301 1.6873883670866672 86.0758410920605
lradius 26.862179555223673
lwrist 6.067566784123816
lhand -31.50599053052223 22.127661556110237
lfingers 7.125020000000034
lthumb -4.715034912011838 52.76391962913205
rfemur -21.718967772457432 17.3444248389239 34.588097708345146
rtibia 28.320042032648615
rfoot -10.845116654170447 -9.601728278632155
rtoes -3.447533541794254
lfemur -18.601473709337036 -1.9922352913409913 -16.892086021142074
ltibia 44.83218632742269
lfoot 1.0227952470963935 -7.672073445892821
ltoes -12.704700350837312
127
root 0 0 0 -7.672455062241049 -8.107148626865348 -5.32061675590425
lowerback 13.649379198645953 1.9661721365298441 5.198575456269652
upperback 2.193897749138218 3.2934522957481995 1.4714593861782574
thorax -5.295675203137218 1.61263786602096 -1.9421269844825568
lowerneck -17.1090426017084 -3.7974145041462144 -1.6699394329115578
upperneck 19.361938091799935 -5.014758829066275 0.8874239927367533
head 8.91115322366383 -2.4104979151245183 -0.05029918453711213
rclavicle 2.9225515737876378E-15 3.79372488938394E-17
rhumerus -46.76394920978616 -17.72125299959241 -73.70729731458317
rradius 25.79654945661897
rwrist -2.8330267486045813
rhand -22.532875143380615 28.539428703709262
rfingers 7.125020000000064
rthumb 3.8988761193831323 -1.8138858749084399
lclavicle -4.949067345900739E-15 -6.357031454639561E-15
lhumerus -41.70262404256245 2.2195508925250884 85.87915667003887
lradius 26.828643191727608
lwrist 5.1918420397722755
lhand -31.8441264156434 21.79602011412954
lfingers 7.125020000000033
lthumb -5.037237369204405 52.49259644728184
rfemur -21.27705351629831 15.69079506168589 33.261251670007766
rtibia 30.11104756993029
rfoot -10.190579130235585 -10.007106445123325
rtoes -4.00664839767709
lfemur -11.328860701689045 -6.311791860354026 -18.603303105519977
ltibia 25.705921105856937
lfoot -5.996894135428942 -1.849817319027693
ltoes -8.173262665710942
128
root 0 0 0 -7.751557540995599 -7.433880395677873 -5.009150816876013
lowerback 13.652271991726408 1.8841541002335933 4.897523659930252
upperback 2.239076858771112 3.1701823024047617 1.4538373545619483
thorax -5.242390970457663 1.5637329907536324 -1.7811446954585195
lowerneck -17.178027567156093 -3.790712108364084 -1.7088709629696917
upperneck 19.255469389154477 -4.978559770467364 0.8835369884859623
head 8.8853599633373 -2.3991953015163334 -0.04502260532934321
rclavicle 2.914760264572536E-15 -2.982419868225658E-16
rhumerus -46.868096147420516 -17.751441831585776 -73.09604304559487
rradius 25.958093007760617
rwrist -2.625303404149058
rhand -22.623273214266117 28.692518060294717
rfingers 7.125020000000064
rthumb 3.8134302621638483 -1.6647230575096472
lclavicle -4.691886015391641E-15 -6.545334767177699E-15
lhumerus -41.44477908365251 2.3428023201724733 85.58760387115902
lradius 26.830077613179228
lwrist 4.588615493360841
lhand -32.150414939719354 21.61662833567724
lfingers 7.125020000000034
lthumb -5.3274984096244005 52.37291686635186
rfemur -21.270306578435978 15.242877784359749 32.60379858660738
rtibia 31.673936351233948
rfoot -8.864123526736371 -10.520481701140698
rtoes -4.4813508881793
lfemur -8.901493468045935 -6.933599080390815 -19.10803097226313
ltibia 19.771373660568276
lfoot -8.540682052397754 -0.13264018301255476
ltoes -6.30573888867522
129
root 0 0 0 -7.773979791242084 -6.642441239243903 -4.631059404535356
lowerback 13.626777593512085 1.7760422812150989 4.530086109181917
upperback 2.2681384930720636 3.0029320554700023 1.4303451999721508
thorax -5.187754245129101 1.4918137520016912 -1.5815115656971415
lowerneck -17.257355680666453 -3.771926193743602 -1.755913598966312
upperneck 19.14583124343432 -4.922466581720332 0.8720019686222833
head 8.861265018534 -2.379140312934154 -0.03827584675801177
rclavicle 3.280918648282051E-15 -7.6498928644009E-17
rhumerus -47.093950951251024 -17.77638412013661 -72.86561480678745
rradius 25.951525550459415
rwrist -2.428493675061926
rhand -22.630655141602617 28.753589061352443
rfingers 7.125020000000064
rthumb 3.807277619322228 -1.598254752487108
lclavicle -4.259144073869961E-15 -6.4218046109907504E-15
lhumerus -41.299114032766546 2.4378755089067585 85.31085821783583
lradius 26.720961802728116
lwrist 3.8923504976339665
lhand -32.39881543389972 21.36331361021606
lfingers 7.125020000000034
lthumb -5.56033036074939 52.17269557568285
rfemur -21.01350173102071 14.595262638165806 31.777420723849076
rtibia 33.25541130160663
rfoot -7.6154412573516 -11.116285215878744
rtoes -4.788799025875647
lfemur -7.700062731252238 -6.885453970036879 -19.497247392758897
ltibia 18.144736185314034
lfoot -9.436743839140815 0.2725374293953635
ltoes -5.488417056094429
130
root 0 0 0 -7.736496388881527 -5.938573072547399 -4.271067143557023
lowerback 13.57452825242887 1.6677540077559647 4.1727421994330465
upperback 2.2765921584805735 2.8301987740650283 1.4046110032895336
thorax -5.140659618234299 1.4138818008130505 -1.3863607877269066
lowerneck -17.32002337105466 -3.746372411641512 -1.7994948655332923
upperneck 19.05568509471785 -4.861814649060482 0.8576112684849648
head 8.841095562168771 -2.355733446068574 -0.030784012271859673
rclavicle 3.429529714601179E-15 2.0548165537025013E-16
rhumerus -47.29693641104619 -17.81077301940442 -72.87257144595317
rradius 25.885341924566813
rwrist -2.367692330424795
rhand -22.59156858127416 28.743760871690895
rfingers 7.125020000000064
rthumb 3.8445772093872677 -1.6013063769883793
lclavicle -4.0789027322894364E-15 -6.26884782755775E-15
lhumerus -41.23439755848203 2.5127516501470004 85.12763175727464
lradius 26.608804516915704
lwrist 3.3998136061154973
lhand -32.545499164545944 21.15426794701256
lfingers 7.125020000000035
lthumb -5.697247083502866 51.99603612710829
rfemur -20.84576294738507 14.125078518825006 31.19942846333062
rtibia 34.35297894367028
rfoot -6.793586521171186 -11.620215128904505
rtoes -4.9727227820220286
lfemur -6.901385349127409 -6.831426226471359 -19.837252802548008
ltibia 17.783592669795027
lfoot -9.870686845058454 0.35057397008305813
ltoes -5.21761995041892
131
root 0 0 0 -7.591585109042278 -5.0849036939188075 -3.7498656679025704
lowerback 13.45822713625488 1.507958640309091 3.6462362268673525
upperback 2.259341909944908 2.567723418864496 1.3676295698045817
thorax -5.085828747297118 1.2920727805249492 -1.0920808377903501
lowerneck -17.388344250905693 -3.701693003063589 -1.8579548803334076
upperneck 18.947125644107988 -4.767603216784104 0.8253314766200459
head 8.813782585859201 -2.3183119215108947 -0.02105368346808545
rclavicle 3.5000844139063117E-15 5.071858075951276E-16
rhumerus -47.55510090317487 -17.86927713693214 -72.97496078230472
rradius 25.753799426705662
rwrist -2.358927544902187
rhand -22.513436874081062 28.687196620812486
rfingers 7.125020000000064
rthumb 3.918579579945831 -1.6484831947191836
lclavicle -3.93475065084943E-15 -6.147272392019755E-15
lhumerus -41.13285327436064 2.5323838896450646 84.97898037224567
lradius 26.512771343985996
lwrist 3.0025816329846275
lhand -32.65461265329978 20.97196284263466
lfingers 7.125020000000035
lthumb -5.798963298509477 51.838206997978354
rfemur -21.048424694009526 13.939007546025792 30.946215449970154
rtibia 34.95053206843971
rfoot -6.342919235449704 -12.294800782361325
rtoes -4.933004616755898
lfemur -6.076095419718875 -6.793363068917705 -20.23717153563289
ltibia 17.81973732983465
lfoot -10.210588051436634 0.3207335210764519
ltoes -5.167111534733506
132
root 0 0 0 -7.445024310243049 -4.604444421662212 -3.397341028099781
lowerback 13.3601229384549 1.3974810784361407 3.2810212788720428
upperback 2.234027842050457 2.3816397886544665 1.3422818829395484
thorax -5.055432116967655 1.2041799685200831 -0.8847501478236506
lowerneck -17.419914694379763 -3.6666227339883894 -1.8924481281858532
upperneck 18.882142049221784 -4.699792725047493 0.7975172454715072
head 8.794283809881803 -2.2906768589700213 -0.01527964886462252
rclavicle 3.5009181175830584E-15 6.699221885823955E-16
rhumerus -47.68840761431619 -17.93022814764399 -73.12160905133348
rradius 25.65507082504512
rwrist -2.3960964469052364
rhand -22.445754141780306 28.63614518673264
rfingers 7.125020000000063
rthumb 3.9824948265723883 -1.6910404655951723
lclavicle -3.823066240762791E-15 -6.105495778400126E-15
lhumerus -40.99753754209003 2.4481477115690913 84.95904918293337
lradius 26.503126283098837
lwrist 3.0119412984685656
lhand -32.67102706509764 20.970427072817962
lfingers 7.125020000000036
lthumb -5.813857633058738 51.84097311452561
rfemur -21.31946169956801 14.100438653515525 31.213005091432095
rtibia 34.313343614185875
rfoot -6.694321377219385 -12.497244610596029
rtoes -5.009671327579014
lfemur -5.596626732153425 -6.7696249191552536 -20.473524854136457
ltibia 17.945743494004006
lfoot -10.356426485910074 0.2755888074974919
ltoes -5.245596619534874
133
root 0 0 0 -7.250620458480746 -4.178161924520142 -3.019020710633284
lowerback 13.244975120345764 1.2774324538638515 2.8859609384117615
upperback 2.1948061369839884 2.1772445944490686 1.31820606972279
thorax -5.033373646246813 1.1070203740198128 -0.6548912413363599
lowerneck -17.446281905294523 -3.6266550765170855 -1.9258733716710073
upperneck 18.819641533443985 -4.624494085287236 0.7586704665906074
head 8.773142531145952 -2.260154187880182 -0.011370852698981526
rclavicle 3.5174405617554164E-15 7.888974267295548E-16
rhumerus -47.817576506740714 -17.981918483360147 -73.2377177508828
rradius 25.550392695662314
rwrist -2.4188062321259025
rhand -22.382960288792717 28.588506101819327
rfingers 7.125020000000063
rthumb 4.041517925708089 -1.7308101126206061
lclavicle -3.700506345810461E-15 -6.1750658505593595E-15
lhumerus -40.7949222544397 2.2949917672541407 84.9406846109848
lradius 26.550659676262885
lwrist 3.144240857003485
lhand -32.66803615230752 21.03854492627878
lfingers 7.125020000000036
lthumb -5.810432343596691 51.90906557345575
rfemur -21.803448859391665 14.672240236024066 31.87164394356425
rtibia 32.88931510674225
rfoot -7.4693659319296675 -12.638077004464702
rtoes -5.1045733013427
lfemur -5.162044677051533 -6.746279219169674 -20.6725045949402
ltibia 18.08863732519303
lfoot -10.43170477382114 0.22023073906338198
ltoes -5.373337188678294
